<?xml version="1.0" standalone="no"?>
<!DOCTYPE svg PUBLIC "-//W3C//DTD SVG 20010904//EN"
 "http://www.w3.org/TR/2001/REC-SVG-20010904/DTD/svg10.dtd">
<svg version="1.0" xmlns="http://www.w3.org/2000/svg"
 width="205.000000pt" height="246.000000pt" viewBox="0 0 205.000000 246.000000"
 preserveAspectRatio="xMidYMid meet">
<metadata>
Created by potrace 1.16, written by Peter Selinger 2001-2019
</metadata>
<g transform="translate(0.000000,246.000000) scale(0.100000,-0.100000)"
fill="#000000" stroke="none">
<path d="M965 2448 c-19 -6 -200 -180 -483 -462 -346 -345 -456 -460 -467
-491 -14 -35 -15 -133 -13 -737 l3 -698 28 -27 27 -28 350 0 350 0 27 28 28
27 3 330 3 330 204 0 204 0 3 -330 3 -330 28 -27 27 -28 350 0 350 0 27 28 28
27 3 698 c2 604 1 702 -13 737 -20 55 -903 937 -954 954 -41 13 -76 13 -116
-1z m537 -536 l448 -447 0 -683 0 -682 -310 0 -310 0 0 320 c0 344 -2 360 -51
386 -40 20 -468 20 -508 0 -49 -26 -51 -42 -51 -386 l0 -320 -310 0 -310 0 0
682 0 683 448 447 c389 390 451 448 477 448 26 0 88 -58 477 -448z"/>
</g>
</svg>
